# xmcd
#
# Track frame offsets:
#	150
#	20830
#	42591
#	66212
#	87696
#	113890
#	134904
#	157615
#	174297
#	196329
#	215665
#	232452
#	251351
#	267847
#	285204
#
# Disc length: 4003 seconds
#
# Revision: 0
# Processed by: cddbd v1.5.2PL0 Copyright (c) Steve Scherf et al.
# Submitted via: EasyCDDAExtractor 9.0.0.1
#
DISCID=e10fa10f
DTITLE=Various Artist - Classic Rock "Power Ballads"
DYEAR=1900
DGENRE=
TTITLE0=Foreigner - Waiting For A Girl Like You-1981
TTITLE1=Starship - Sara-1986
TTITLE2=Big Country - Alone-1993
TTITLE3=Cheap Trick - The Flame-1988
TTITLE4=Alice Cooper - Only Women Bleed-1977
TTITLE5=Electric Light Orchestra - Telephone Line-1977
TTITLE6=Journey - Who's Crying Now-1982
TTITLE7=Marillion - Lavender-1985
TTITLE8=Dan Reed Network - Rainbow Child-1989
TTITLE9=Hootie and The Blowfish - Hold My Hand-1995
TTITLE10=Thunder - A Better Man-1992
TTITLE11=Peter Cetera - Restless Heart-1992
TTITLE12=Pat Benatar - We Belong-1985
TTITLE13=Toto - I'll Be Over You-1986
TTITLE14=Mr. Big - To Be With You-1992
EXTD=
EXTT0=
EXTT1=
EXTT2=
EXTT3=
EXTT4=
EXTT5=
EXTT6=
EXTT7=
EXTT8=
EXTT9=
EXTT10=
EXTT11=
EXTT12=
EXTT13=
EXTT14=
PLAYORDER=
